<?xml version="1.0" standalone="no"?><!DOCTYPE svg PUBLIC "-//W3C//DTD SVG 1.1//EN" "http://www.w3.org/Graphics/SVG/1.1/DTD/svg11.dtd"><svg t="1703917720895" class="icon" viewBox="0 0 1024 1024" version="1.1" xmlns="http://www.w3.org/2000/svg" p-id="4257" width="64" height="64" xmlns:xlink="http://www.w3.org/1999/xlink"><path d="M186.5087 473.900783h632.981723A74.193211 74.193211 0 0 0 893.015227 401.044386V82.214099a73.524804 73.524804 0 0 0-34.75718-62.16188l-38.767624-20.052219L153.756742 334.203655a73.524804 73.524804 0 0 0 32.751958 139.697128z m572.825065-294.099216v160.417754H440.503478zM838.874235 562.798956l-633.650131-3.342037a73.524804 73.524804 0 0 0-32.751958 139.028721l632.981723 317.493472a71.519582 71.519582 0 0 0 32.751959 8.020888 74.861619 74.861619 0 0 0 38.767624-11.362924l34.75718-25.399478V636.32376a72.856397 72.856397 0 0 0-72.856397-73.524804zM781.391206 852.887728l-318.830287-158.412532h315.488251z" fill="#538EBD" p-id="4258"></path></svg>