<?xml version="1.0" standalone="no"?><!DOCTYPE svg PUBLIC "-//W3C//DTD SVG 1.1//EN" "http://www.w3.org/Graphics/SVG/1.1/DTD/svg11.dtd"><svg t="1703917736021" class="icon" viewBox="0 0 1024 1024" version="1.1" xmlns="http://www.w3.org/2000/svg" p-id="4603" xmlns:xlink="http://www.w3.org/1999/xlink" width="64" height="64"><path d="M870.638621 325.51436L238.325305 8.020888A74.861619 74.861619 0 0 0 166.137316 10.694517L131.380136 36.093995v354.924282A73.524804 73.524804 0 0 0 204.90494 467.885117h632.981723a73.524804 73.524804 0 0 0 32.751958-139.02872zM265.061598 334.203655V171.112272L583.891885 334.203655zM819.171258 550.767624H186.189535A73.524804 73.524804 0 0 0 112.664731 627.634465v313.483028a73.524804 73.524804 0 0 0 34.75718 61.493473l38.099217 20.052219 668.407311-334.203655a72.856397 72.856397 0 0 0 38.099216-82.882507 73.524804 73.524804 0 0 0-72.856397-54.809399zM246.346193 844.198433v-157.075718h316.156658z" fill="#538EBD" p-id="4604"></path></svg>